<?xml version="1.0" standalone="no"?>
<!DOCTYPE svg PUBLIC "-//W3C//DTD SVG 20010904//EN"
 "http://www.w3.org/TR/2001/REC-SVG-20010904/DTD/svg10.dtd">
<svg version="1.0" xmlns="http://www.w3.org/2000/svg"
 width="630.000000pt" height="630.000000pt" viewBox="0 0 630.000000 630.000000"
 preserveAspectRatio="xMidYMid meet">
<metadata>
Created by potrace 1.14, written by Peter Selinger 2001-2017
</metadata>
<g transform="translate(0.000000,630.000000) scale(0.100000,-0.100000)"
fill="#000000" stroke="none">
<path d="M3033 5743 c-34 -4 -45 -22 -62 -102 -18 -82 -46 -82 -75 0 -24 68
-42 89 -77 89 -72 0 -74 -17 -18 -160 83 -214 87 -232 102 -432 7 -103 17
-191 21 -195 12 -12 95 -8 108 5 9 9 9 60 0 204 l-12 193 45 190 c41 175 43
191 28 203 -9 6 -19 11 -22 10 -3 0 -20 -3 -38 -5z"/>
<path d="M2416 5651 c-71 -20 -133 -43 -138 -51 -7 -11 18 -117 82 -355 51
-187 95 -350 98 -362 9 -45 24 -47 144 -14 62 17 132 36 155 42 58 16 67 28
53 78 -15 57 -32 62 -115 40 -124 -33 -134 -29 -161 76 -25 92 -22 99 46 124
54 20 60 25 60 50 0 44 -19 53 -92 45 l-65 -6 -15 38 c-26 64 -39 124 -33 143
6 21 34 34 119 56 33 9 66 21 73 27 17 14 16 42 -2 78 -20 39 -43 38 -209 -9z"/>
<path d="M1982 5492 c-12 -11 -22 -25 -22 -31 0 -6 32 -72 70 -146 64 -124 83
-175 62 -175 -18 0 -29 12 -196 223 -20 26 -44 47 -52 47 -17 0 -102 -45 -123
-65 -12 -12 -7 -27 33 -104 25 -50 56 -108 68 -128 11 -21 43 -80 70 -131 112
-208 174 -316 189 -325 20 -13 75 7 83 30 3 8 -19 61 -49 117 -64 120 -88 183
-74 192 15 9 41 -18 136 -138 47 -60 91 -108 99 -108 26 0 124 54 130 72 3 11
-12 51 -39 101 -24 45 -66 123 -93 172 -213 397 -220 410 -245 413 -14 2 -35
-6 -47 -16z"/>
<path d="M3083 5145 c4 -59 7 -127 7 -151 0 -41 2 -43 34 -49 30 -6 82 10 136
42 3 2 11 -16 17 -39 15 -55 66 -116 105 -126 17 -4 38 -18 46 -30 13 -20 13
-22 -1 -16 -17 6 -14 -8 24 -108 19 -52 15 -57 -33 -32 -24 12 -32 13 -38 3
-9 -14 12 -39 33 -39 8 0 25 -9 38 -21 13 -11 36 -27 52 -35 15 -8 27 -23 27
-33 0 -9 11 -40 25 -67 29 -55 39 -136 39 -304 -1 -128 -25 -254 -64 -329 -36
-69 -49 -84 -125 -145 -33 -27 -65 -58 -72 -70 -6 -12 -16 -64 -23 -117 -9
-81 -9 -107 5 -164 16 -69 42 -130 30 -70 -3 17 -9 39 -12 50 -5 17 -4 18 10
6 9 -7 14 -17 11 -22 -3 -5 -1 -9 4 -9 6 0 15 -14 21 -31 14 -40 14 -39 -3
-39 -8 0 -18 -4 -21 -10 -4 -6 1 -7 11 -3 27 10 -33 -92 -83 -142 -53 -54
-132 -80 -206 -71 -86 12 -448 177 -461 211 -3 9 -4 29 -1 43 3 15 2 21 -1 14
-3 -6 -10 -9 -15 -6 -6 3 -7 -5 -3 -21 4 -16 3 -26 -2 -24 -6 2 -67 33 -137
68 l-127 64 81 46 c106 60 176 123 205 186 22 46 24 48 24 20 0 -16 4 -36 8
-43 17 -25 -1 163 -19 213 -11 27 -17 37 -14 20 4 -16 8 -57 10 -90 4 -55 4
-57 -6 -21 -5 22 -15 46 -21 54 -11 12 -16 42 -17 102 -1 40 12 126 20 135 5
5 9 15 9 23 0 9 -8 4 -21 -12 -35 -45 -97 -26 -149 46 -56 77 -80 226 -44 276
20 28 28 28 101 -7 33 -16 68 -29 79 -28 13 2 20 -7 24 -28 4 -16 7 20 7 80 0
117 15 195 37 195 21 0 66 40 77 67 6 17 4 35 -6 59 -11 27 -12 41 -4 56 6 11
9 38 7 61 -3 40 -2 41 35 50 26 6 42 18 53 38 8 16 11 29 7 29 -5 0 -73 -18
-153 -40 -80 -22 -158 -40 -173 -40 -16 0 -43 -11 -60 -24 -63 -47 -118 -68
-162 -64 -39 5 -41 4 -56 -32 -12 -27 -28 -43 -61 -58 -24 -12 -53 -22 -64
-22 -14 0 -23 -11 -31 -39 -16 -49 -10 -65 33 -92 29 -17 32 -23 23 -40 -5
-11 -21 -25 -35 -31 -24 -11 -33 -28 -14 -28 6 0 10 -8 10 -18 0 -28 32 -52
69 -52 31 0 32 -1 17 -22 -19 -26 -21 -79 -5 -95 9 -9 6 -20 -10 -46 -32 -53
-28 -87 15 -116 50 -35 61 -67 32 -98 -20 -21 -39 -29 -121 -47 -40 -9 -77
-49 -77 -83 1 -15 9 -46 20 -68 25 -51 25 -58 0 -50 -33 10 -89 -14 -105 -45
-18 -35 -19 -99 -2 -121 15 -19 70 -49 92 -49 9 0 15 -9 15 -24 0 -30 40 -46
89 -35 28 6 37 3 51 -14 l17 -21 32 27 c36 30 47 33 53 15 2 -6 -20 -34 -50
-60 -39 -36 -58 -47 -73 -43 -14 5 -35 -8 -82 -53 -34 -33 -91 -75 -126 -93
-35 -19 -75 -50 -90 -69 -14 -19 -49 -61 -78 -93 -29 -32 -53 -66 -53 -76 0
-10 -7 -24 -15 -31 -33 -27 -74 -101 -84 -152 -6 -29 -12 -147 -14 -263 l-2
-210 20 40 c11 22 26 40 34 40 8 0 18 13 22 28 4 16 12 34 17 40 11 14 28 94
37 182 8 66 14 83 25 65 4 -6 10 22 13 63 7 79 47 211 72 236 13 14 15 13 15
-6 0 -11 7 -37 16 -58 12 -30 13 -46 4 -90 -9 -45 -8 -65 10 -134 19 -74 19
-84 5 -104 -8 -12 -15 -26 -15 -32 0 -5 9 5 21 24 19 32 20 41 11 105 -7 44
-7 76 -1 87 12 24 11 32 -3 23 -8 -5 -9 -2 -5 10 4 10 7 25 8 34 1 11 4 8 10
-8 7 -20 8 -17 3 12 -3 21 -14 57 -24 80 -28 61 -26 84 9 96 26 9 31 7 51 -20
12 -16 61 -55 108 -85 48 -31 105 -70 126 -86 30 -24 36 -26 28 -11 -17 31
-79 83 -170 143 -45 30 -81 59 -79 65 2 6 19 16 38 22 33 12 35 11 52 -22 22
-43 49 -61 123 -79 32 -9 78 -23 102 -32 39 -15 43 -19 38 -42 l-6 -26 21 28
c28 37 86 38 133 2 18 -14 37 -25 43 -25 11 0 53 -42 53 -53 0 -4 -10 -7 -22
-8 -13 -1 -4 -5 19 -9 59 -12 182 -72 189 -92 3 -9 10 -15 17 -12 7 2 60 -31
118 -73 58 -43 121 -89 140 -103 l34 -24 -50 -12 c-50 -11 -49 -11 25 -6 54 3
93 0 135 -13 125 -36 261 -168 284 -276 13 -61 9 -72 -13 -32 -28 54 -76 94
-153 129 -43 19 -109 51 -148 69 -130 63 -218 73 -261 29 -32 -31 -26 -65 19
-112 l32 -33 -27 -50 c-34 -60 -37 -132 -9 -187 23 -45 41 -101 41 -129 0 -11
7 -39 15 -62 18 -51 9 -52 -63 -9 -75 45 -190 204 -193 265 0 12 -2 14 -6 5
-12 -32 74 -178 147 -248 l42 -41 -98 -28 c-82 -23 -112 -27 -185 -23 -57 3
-95 10 -111 20 -47 31 -148 68 -223 83 -41 8 -95 23 -120 34 -25 11 -45 18
-45 15 0 -12 110 -54 165 -63 70 -11 215 -74 215 -93 0 -13 -20 -90 -34 -135
-11 -36 10 -27 25 10 7 17 19 37 26 42 7 6 17 24 21 40 6 22 14 30 30 29 12 0
47 -1 77 -2 l56 -2 -6 -34 c-6 -32 8 -125 26 -173 12 -31 49 -20 50 16 1 29 3
24 19 -37 17 -66 30 -50 32 41 1 68 2 72 5 25 5 -70 23 -77 24 -10 l1 47 11
-44 c8 -32 7 -52 -2 -78 -7 -19 -11 -37 -8 -39 6 -6 47 103 47 125 0 9 5 22
12 29 8 8 12 46 13 103 0 85 1 90 20 85 11 -3 26 -6 33 -6 30 0 0 -211 -41
-280 -11 -19 -40 -58 -64 -87 -42 -50 -74 -109 -72 -135 0 -7 7 4 15 26 11 32
56 93 116 161 6 6 7 -2 3 -20 -15 -66 -14 -69 4 -30 11 22 20 34 20 27 1 -7
-4 -22 -10 -33 -5 -11 -7 -29 -4 -40 9 -29 28 -10 54 54 29 72 59 88 172 95
85 5 89 6 89 28 0 17 6 24 20 24 15 0 20 -7 20 -25 0 -14 5 -25 10 -25 6 0 10
11 10 25 0 14 4 25 9 25 6 0 9 -12 8 -26 -2 -21 4 -28 38 -39 38 -13 54 -9 55
16 0 6 54 31 93 43 17 5 17 8 1 38 -9 18 -32 50 -51 70 l-36 36 23 39 c13 21
30 44 38 51 9 7 11 12 4 12 -17 0 -56 -57 -93 -133 -37 -77 -63 -100 -111 -95
-32 3 -33 4 -32 48 2 66 20 181 33 214 11 29 7 81 -8 90 -4 3 -5 -10 -3 -28 2
-17 -4 -58 -13 -89 -15 -53 -19 -57 -46 -57 -35 0 -48 14 -99 101 -65 111 -72
191 -24 267 21 32 30 28 48 -25 18 -54 20 -91 6 -128 -6 -16 -6 -24 0 -20 16
10 28 73 20 108 l-7 34 51 -5 c59 -5 55 9 -5 17 -36 6 -42 11 -74 68 l-34 62
26 -10 c14 -5 28 -7 30 -5 6 6 -119 45 -171 52 -80 12 -126 92 -74 128 42 30
116 17 233 -39 39 -18 108 -51 155 -73 99 -47 115 -62 165 -157 46 -86 66
-106 132 -133 79 -31 148 -81 252 -182 51 -50 96 -89 98 -86 3 3 -5 15 -17 28
-34 36 -37 48 -27 136 12 110 31 106 33 -7 2 -83 17 -141 38 -141 18 1 46 26
46 41 0 12 2 12 9 0 14 -23 29 -3 36 47 10 76 19 81 25 17 l7 -60 1 63 2 64
31 -26 c17 -14 36 -26 42 -26 7 0 1 9 -13 20 -71 54 -68 49 -42 56 12 3 22 11
22 17 0 6 15 -2 33 -19 l32 -29 -29 32 c-15 17 -34 29 -41 27 -7 -3 -16 -1
-20 5 -3 7 2 11 14 11 27 0 35 17 14 29 -10 6 -15 11 -11 11 4 0 -4 11 -17 25
-15 14 -25 35 -25 52 l1 28 14 -32 c13 -31 51 -60 63 -49 13 13 8 63 -10 92
-22 37 -24 56 -3 28 14 -18 14 -18 15 11 l2 30 16 -35 16 -35 6 30 c4 17 5 64
3 105 -4 73 -3 74 12 48 23 -41 39 -36 32 10 -4 21 -3 31 2 24 15 -25 22 35
12 96 -9 53 -28 220 -37 337 -4 43 -3 47 7 25 6 -14 24 -74 40 -135 36 -140
57 -200 58 -165 1 64 -34 228 -75 345 -6 20 -6 20 9 0 37 -50 167 -333 167
-364 0 -11 5 -8 16 7 9 13 14 32 11 43 -8 28 10 23 27 -8 8 -16 15 -25 16 -21
1 18 -67 174 -131 301 -37 75 -65 137 -61 137 14 0 58 -53 106 -129 26 -41 81
-106 123 -145 42 -39 89 -91 104 -115 16 -25 29 -41 29 -35 0 14 -39 76 -68
106 -37 40 -8 36 56 -7 28 -20 52 -32 52 -27 0 13 -104 72 -128 72 -29 0 -124
96 -162 164 -32 56 -92 122 -119 131 -9 3 -31 27 -49 53 -45 67 -120 138 -163
156 -20 9 -56 35 -80 59 -28 27 -63 50 -94 61 -78 26 -82 29 -60 62 10 16 17
44 17 70 -1 36 2 44 21 50 57 17 72 68 42 141 -20 46 -7 63 49 63 33 0 48 6
69 28 42 44 32 100 -26 157 -48 46 -77 178 -42 191 8 3 24 26 35 50 12 24 26
44 31 44 5 0 16 11 25 25 24 36 11 152 -22 201 -16 23 -22 40 -16 48 28 36 22
43 -43 42 -81 -1 -90 7 -73 67 10 38 10 56 0 93 -11 40 -10 50 3 70 8 13 15
45 15 71 0 32 -3 43 -9 34 -5 -8 -7 -20 -4 -27 3 -8 -6 -16 -23 -20 -51 -13
-85 33 -39 54 14 6 25 16 25 21 0 15 -42 51 -59 51 -9 1 -26 6 -39 13 -23 13
-23 13 -3 31 11 10 37 20 59 23 33 4 44 1 75 -27 29 -25 37 -28 37 -15 0 24
-27 67 -58 89 -14 11 -48 21 -77 24 -49 4 -51 5 -48 31 5 35 -30 89 -64 97
-15 4 -51 2 -81 -4 -55 -12 -99 -3 -114 21 -12 19 -9 72 4 85 18 18 46 15 57
-6 11 -21 -3 -42 -27 -42 -22 0 -7 -25 17 -28 26 -4 61 23 61 48 0 10 -10 30
-22 45 -20 25 -25 27 -74 22 -38 -4 -56 -2 -64 9 -30 35 -97 27 -147 -19 -21
-19 -24 -19 -45 -3 -13 9 -33 23 -45 32 -12 8 -47 18 -79 21 l-57 6 6 -108z
m315 52 c22 -27 -22 -52 -64 -37 -28 11 -24 27 10 40 30 12 42 12 54 -3z
m-1308 -1637 c0 -21 -29 -68 -46 -74 -37 -14 -59 38 -28 68 17 18 74 22 74 6z
m-35 -150 c-3 -5 -11 -10 -16 -10 -6 0 -7 5 -4 10 3 6 11 10 16 10 6 0 7 -4 4
-10z m1349 -162 c-6 -20 -9 -18 -30 25 -14 26 -31 47 -39 47 -9 0 -15 9 -15
23 0 19 6 16 46 -25 37 -38 44 -52 38 -70z m-1106 73 c20 -11 99 -50 176 -88
l138 -68 38 -75 c20 -41 56 -118 79 -171 23 -53 48 -103 54 -111 7 -7 11 -11
10 -9 -2 2 2 10 9 18 8 11 8 17 -2 26 -9 9 -11 9 -6 0 3 -6 2 -14 -3 -17 -5
-3 -32 49 -61 117 -29 67 -61 139 -71 160 -20 39 -20 41 5 31 9 -3 12 -12 9
-22 -5 -13 -3 -14 6 -6 10 9 37 0 114 -36 231 -108 311 -127 405 -96 53 18
145 97 157 137 4 13 12 18 22 15 11 -4 13 -1 8 15 -4 11 -3 25 2 32 5 7 15 31
23 55 l13 42 18 -29 c10 -17 27 -35 38 -40 28 -15 94 -14 116 3 17 12 22 12
44 -5 34 -27 90 -24 136 6 l37 26 68 -26 c86 -33 99 -53 82 -132 -6 -30 -41
-148 -76 -262 -36 -113 -75 -246 -86 -296 -12 -49 -32 -121 -46 -159 -50 -139
-192 -416 -213 -416 -15 0 -61 53 -65 74 -19 97 -40 166 -61 198 -21 31 -23
42 -14 59 6 11 8 23 6 26 -3 2 -8 -5 -12 -16 -6 -20 -10 -18 -58 25 -60 54
-151 100 -216 110 -47 7 -84 30 -261 161 -50 37 -93 79 -105 100 -11 20 -28
40 -37 45 -10 4 -26 12 -35 16 -10 5 -21 30 -28 65 -12 58 -35 100 -35 63 0
-16 -3 -15 -19 5 -10 13 -24 41 -30 61 -15 46 -54 78 -93 78 -16 0 -41 9 -56
20 -15 10 -73 28 -130 40 -93 19 -105 19 -132 5 -39 -20 -50 -19 -50 5 0 35
-49 25 -113 -24 -33 -24 -84 -53 -115 -65 -32 -11 -81 -39 -109 -61 -51 -38
-76 -34 -32 6 12 10 46 49 75 86 39 49 71 76 116 100 34 18 90 59 123 90 45
42 67 56 82 52 14 -4 31 6 59 34 46 46 54 48 102 23z m-91 -267 c-3 -3 -12 -4
-19 -1 -8 3 -5 6 6 6 11 1 17 -2 13 -5z m64 -79 c32 -30 62 -55 68 -55 15 0
14 -17 -5 -45 l-15 -24 -42 30 c-23 16 -71 36 -107 45 -69 17 -110 45 -110 76
0 30 23 20 52 -22 33 -48 56 -54 28 -7 -30 49 -26 57 27 57 42 0 51 -4 104
-55z m1765 47 c20 -13 34 -50 63 -174 28 -115 54 -298 45 -307 -2 -2 -5 4 -5
15 -1 12 -4 7 -9 -11 -5 -21 -8 -4 -9 58 -1 56 -8 108 -20 145 -10 31 -21 86
-25 121 -7 71 -34 127 -59 125 -10 -1 -17 6 -17 17 0 19 16 25 36 11z m-1487
-88 c6 -15 9 -29 6 -32 -9 -10 -48 35 -41 47 11 18 22 13 35 -15z m1477 -9
c26 -64 13 -100 -20 -53 -18 25 -22 88 -5 88 5 0 17 -16 25 -35z m-1636 -40
c0 -8 -2 -15 -4 -15 -2 0 -12 -3 -21 -6 -15 -6 -15 -4 -4 15 16 25 29 27 29 6z
m1625 -86 c20 -22 20 -22 -22 2 -23 13 -39 27 -37 31 7 11 35 -5 59 -33z m5
-74 c34 -71 14 -71 -33 0 -33 48 -36 70 -8 56 10 -6 29 -31 41 -56z m-54 -127
c9 -31 0 -30 -20 2 -14 25 -14 29 -2 24 8 -3 18 -15 22 -26z m-52 -17 c4 -5
-3 -7 -14 -4 -23 6 -26 13 -6 13 8 0 17 -4 20 -9z m103 -63 c-3 -7 -5 -2 -5
12 0 14 2 19 5 13 2 -7 2 -19 0 -25z m-113 -33 c14 -13 26 -30 26 -37 0 -7 -7
-3 -15 9 -9 12 -26 29 -38 38 -12 8 -17 15 -11 15 6 0 23 -11 38 -25z m233 3
c-3 -8 -6 -5 -6 6 -1 11 2 17 5 13 3 -3 4 -12 1 -19z m-110 -35 c-3 -10 -5 -2
-5 17 0 19 2 27 5 18 2 -10 2 -26 0 -35z m-102 -96 c8 -28 15 -64 14 -81 -1
-23 -4 -17 -13 24 -7 30 -20 69 -29 87 -21 40 -21 49 -2 33 8 -7 22 -35 30
-63z m-75 -58 c7 -11 9 -23 6 -27 -3 -3 -6 0 -6 6 0 6 -12 18 -27 26 -26 14
-26 15 -6 16 13 0 27 -9 33 -21z m387 -1 c-3 -8 -6 -5 -6 6 -1 11 2 17 5 13 3
-3 4 -12 1 -19z m-413 -44 c11 -28 6 -36 -10 -20 -8 9 -20 16 -25 16 -6 0 -7
5 -4 10 9 15 32 12 39 -6z m-34 -133 l0 -26 -20 33 c-11 18 -20 40 -20 50 1
29 40 -26 40 -57z m-743 26 c10 -10 7 -20 -17 -48 -16 -20 -51 -68 -78 -107
l-49 -71 -16 29 c-25 42 -21 104 11 168 l27 54 55 -6 c30 -4 61 -12 67 -19z
m796 -89 c3 -43 2 -78 -2 -78 -12 0 -21 64 -20 135 0 80 14 44 22 -57z m214 0
c-3 -8 -6 -5 -6 6 -1 11 2 17 5 13 3 -3 4 -12 1 -19z m-1230 -410 c-3 -7 -5
-2 -5 12 0 14 2 19 5 13 2 -7 2 -19 0 -25z m-140 -30 c-3 -7 -5 -2 -5 12 0 14
2 19 5 13 2 -7 2 -19 0 -25z"/>
<path d="M3407 3127 c4 -39 2 -51 -13 -62 -18 -13 -18 -14 4 -8 17 4 22 12 21
37 -1 17 -5 42 -9 56 -6 17 -7 10 -3 -23z"/>
<path d="M3375 3090 c-3 -5 -2 -10 4 -10 5 0 13 5 16 10 3 6 2 10 -4 10 -5 0
-13 -4 -16 -10z"/>
<path d="M3421 3008 c0 -27 -5 -48 -11 -48 -5 0 -7 7 -4 15 4 8 1 15 -5 15 -6
0 -11 -13 -11 -29 0 -20 -9 -37 -31 -55 -17 -14 -26 -26 -21 -26 5 0 17 9 27
20 21 24 37 26 29 5 -4 -8 -1 -15 5 -15 6 0 11 5 11 10 0 6 4 10 9 10 6 0 12
-19 14 -42 2 -24 3 -12 2 26 -2 53 2 77 17 105 12 22 14 29 4 17 -9 -11 -17
-25 -17 -30 -1 -6 -5 7 -9 29 l-7 40 -2 -47z m-1 -78 c0 -5 -5 -10 -11 -10 -5
0 -7 5 -4 10 3 6 8 10 11 10 2 0 4 -4 4 -10z"/>
<path d="M2755 2930 c-3 -6 1 -7 9 -4 18 7 21 14 7 14 -6 0 -13 -4 -16 -10z"/>
<path d="M3395 2860 c-3 -6 1 -7 9 -4 18 7 21 14 7 14 -6 0 -13 -4 -16 -10z"/>
<path d="M3400 2819 c0 -5 5 -7 10 -4 6 3 10 8 10 11 0 2 -4 4 -10 4 -5 0 -10
-5 -10 -11z"/>
<path d="M3406 2785 c4 -8 10 -12 15 -9 14 8 10 24 -6 24 -9 0 -12 -6 -9 -15z"/>
<path d="M2810 2780 c-13 -8 -12 -10 3 -10 9 0 17 5 17 10 0 12 -1 12 -20 0z"/>
<path d="M3418 2753 c7 -3 16 -2 19 1 4 3 -2 6 -13 5 -11 0 -14 -3 -6 -6z"/>
<path d="M3420 2729 c0 -5 5 -7 10 -4 6 3 10 8 10 11 0 2 -4 4 -10 4 -5 0 -10
-5 -10 -11z"/>
<path d="M3425 2700 c-3 -6 1 -7 9 -4 18 7 21 14 7 14 -6 0 -13 -4 -16 -10z"/>
<path d="M3423 2600 c-1 -11 2 -18 8 -15 11 7 12 35 1 35 -4 0 -8 -9 -9 -20z"/>
<path d="M3430 2559 c0 -5 5 -7 10 -4 6 3 10 8 10 11 0 2 -4 4 -10 4 -5 0 -10
-5 -10 -11z"/>
<path d="M2935 2550 c-3 -5 -1 -10 4 -10 6 0 11 5 11 10 0 6 -2 10 -4 10 -3 0
-8 -4 -11 -10z"/>
<path d="M3445 2491 c4 -8 -1 -24 -12 -39 -27 -37 -53 -88 -53 -104 1 -7 8 3
16 22 8 19 23 44 33 55 25 27 35 62 20 71 -8 5 -9 3 -4 -5z"/>
<path d="M3490 2415 c11 -13 8 -28 -15 -85 -16 -39 -32 -70 -37 -70 -4 0 -8
-4 -8 -10 0 -5 7 -7 15 -4 9 4 16 -2 19 -18 12 -55 15 -60 11 -17 -2 26 1 51
7 57 6 6 12 31 14 57 2 25 6 50 9 56 9 13 -4 49 -17 49 -6 0 -6 -6 2 -15z m-6
-119 c-3 -14 -10 -26 -14 -26 -5 0 -3 13 3 30 13 35 21 33 11 -4z"/>
<path d="M3421 2354 c-6 -15 -9 -29 -7 -32 3 -2 10 8 16 23 14 36 7 43 -9 9z"/>
<path d="M2670 5196 c-6 -8 -28 -20 -48 -27 -20 -6 -40 -14 -44 -18 -10 -8 12
-81 24 -81 5 0 6 -4 3 -10 -8 -14 3 -13 61 5 72 22 126 19 160 -7 24 -19 27
-20 21 -4 -4 10 -7 47 -7 82 0 71 -9 79 -54 43 l-26 -21 -31 26 c-35 30 -42
31 -59 12z m-16 -81 c16 -12 17 -15 4 -15 -8 0 -21 7 -28 15 -16 19 -1 19 24
0z"/>
<path d="M1450 5139 c-46 -28 -98 -78 -116 -111 -20 -38 -18 -72 7 -120 27
-53 361 -433 403 -459 64 -39 138 -20 212 55 48 48 66 93 55 134 -19 64 -27
75 -268 350 -31 35 -64 73 -74 86 -11 13 -40 38 -66 55 -55 37 -103 40 -153
10z m177 -216 c225 -251 248 -281 238 -313 -8 -26 -40 -43 -66 -35 -22 7 -305
324 -321 361 -6 12 -8 34 -4 48 5 22 12 26 40 26 30 0 43 -10 113 -87z"/>
<path d="M1103 4805 c-23 -16 -73 -96 -73 -117 0 -7 63 -74 140 -148 77 -74
140 -141 140 -147 0 -7 -11 -13 -24 -13 -27 0 -58 13 -229 94 -65 31 -124 56
-132 56 -27 0 -99 -108 -89 -133 3 -9 114 -90 247 -180 354 -241 378 -257 393
-257 14 0 64 67 64 87 0 6 -45 44 -100 84 -102 74 -124 99 -90 99 20 0 110
-32 197 -71 51 -22 53 -22 73 -4 11 10 20 25 20 32 0 8 -40 57 -90 108 -87 90
-104 115 -77 115 14 0 135 -69 174 -100 39 -31 68 -26 92 16 36 61 61 38 -324
298 -104 71 -197 134 -205 141 -8 6 -31 21 -51 33 -32 19 -38 20 -56 7z"/>
<path d="M2958 4677 c-60 -20 -136 -73 -123 -85 3 -3 31 9 62 25 62 33 171 58
203 48 30 -9 24 14 -6 25 -36 14 -60 12 -136 -13z"/>
<path d="M2853 4468 c1 -18 9 -30 27 -39 28 -13 146 -12 170 1 10 6 11 9 3 10
-18 0 -16 20 1 20 8 0 17 -6 19 -12 4 -10 6 -10 6 0 1 7 -16 20 -36 28 -33 14
-43 14 -102 0 -81 -20 -79 -20 -84 2 -3 9 -4 5 -4 -10z m122 -28 c3 -5 1 -10
-4 -10 -6 0 -11 5 -11 10 0 6 2 10 4 10 3 0 8 -4 11 -10z"/>
<path d="M3292 4465 c0 -11 3 -29 8 -40 11 -25 11 1 0 35 -6 20 -8 21 -8 5z"/>
<path d="M3462 4424 c20 -9 39 -22 42 -30 4 -11 -2 -9 -23 5 -16 12 -42 21
-58 20 -34 -1 -86 -17 -60 -18 9 -1 17 -5 17 -11 0 -5 0 -13 0 -17 0 -11 89
-41 123 -42 35 -1 43 19 23 58 -18 34 -44 51 -78 50 -19 0 -16 -3 14 -15z"/>
<path d="M2410 4251 c-12 -24 -13 -111 -1 -130 6 -10 8 -1 4 26 -3 23 -2 58 1
78 6 30 11 36 27 32 10 -3 17 -1 13 4 -9 15 -33 10 -44 -10z"/>
<path d="M3070 4260 c0 -13 49 -44 57 -36 3 3 1 6 -5 6 -7 0 -21 9 -32 20 -11
11 -20 16 -20 10z"/>
<path d="M3195 4240 c3 -5 11 -10 16 -10 6 0 7 5 4 10 -3 6 -11 10 -16 10 -6
0 -7 -4 -4 -10z"/>
<path d="M2932 4193 l-49 -48 46 39 c64 55 66 56 59 56 -4 0 -29 -21 -56 -47z"/>
<path d="M3371 4228 c-1 -9 -9 -22 -18 -27 -17 -10 -17 -10 0 -11 19 0 32 22
24 42 -4 8 -6 7 -6 -4z"/>
<path d="M3300 4213 c-13 -15 -12 -16 4 -10 10 4 20 7 22 7 2 0 4 5 4 10 0 15
-13 12 -30 -7z"/>
<path d="M2526 4165 c5 -20 1 -32 -16 -51 -13 -13 -21 -26 -18 -29 3 -4 15 6
27 21 22 28 28 69 11 79 -7 4 -8 -3 -4 -20z"/>
<path d="M2601 4124 c0 -11 3 -14 6 -6 3 7 2 16 -1 19 -3 4 -6 -2 -5 -13z"/>
<path d="M3043 4101 c-77 -40 -84 -48 -76 -95 8 -52 36 -67 161 -83 211 -27
227 -28 251 -4 25 25 27 66 5 122 -22 54 -75 77 -193 85 -82 6 -89 4 -148 -25z
m279 -12 c21 -11 43 -31 48 -45 15 -37 12 -42 -9 -15 -15 20 -34 26 -117 38
-130 18 -173 18 -220 -2 -51 -21 -33 -4 31 30 46 24 56 25 139 20 59 -4 102
-13 128 -26z m-103 -30 c111 -14 124 -20 149 -63 27 -45 8 -48 -29 -4 -24 30
-36 34 -122 49 -58 9 -102 12 -111 7 -9 -5 -32 -11 -53 -14 -55 -7 -53 -14 3
-14 44 0 159 -19 257 -42 20 -5 37 -14 37 -19 0 -7 -7 -8 -17 -4 -10 4 -43 11
-73 15 -30 4 -73 10 -95 13 -35 5 -34 4 10 -7 28 -8 66 -15 85 -15 19 -1 53
-7 74 -15 37 -13 38 -14 18 -25 -28 -15 -50 -14 -119 4 -31 8 -80 15 -108 15
-62 0 -119 15 -136 37 -13 15 -11 16 16 11 17 -3 50 -2 75 2 l45 8 -50 0 c-78
0 -81 1 -82 21 -2 25 49 50 101 51 22 0 78 -5 125 -11z"/>
<path d="M3045 3691 c33 -21 75 -43 94 -49 50 -17 129 -14 181 8 54 23 40 26
-20 5 -80 -28 -141 -18 -240 42 -76 46 -89 41 -15 -6z"/>
<path d="M3048 3533 c6 -2 18 -2 25 0 6 3 1 5 -13 5 -14 0 -19 -2 -12 -5z"/>
<path d="M3208 3365 c-17 -37 -29 -68 -27 -70 3 -2 18 28 36 66 17 38 29 69
27 69 -3 0 -19 -29 -36 -65z"/>
<path d="M2556 3402 c2 -3 -1 -11 -7 -19 -8 -9 -8 -13 -1 -13 16 0 26 20 15
30 -6 4 -8 5 -7 2z"/>
<path d="M2636 3373 c-6 -14 -5 -15 5 -6 7 7 10 15 7 18 -3 3 -9 -2 -12 -12z"/>
<path d="M2560 3349 c0 -5 5 -7 10 -4 6 3 10 8 10 11 0 2 -4 4 -10 4 -5 0 -10
-5 -10 -11z"/>
<path d="M2585 3279 c-4 -6 -5 -12 -2 -15 2 -3 7 2 10 11 7 17 1 20 -8 4z"/>
<path d="M3171 3264 c0 -11 3 -14 6 -6 3 7 2 16 -1 19 -3 4 -6 -2 -5 -13z"/>
<path d="M3282 3245 c0 -16 2 -22 5 -12 2 9 2 23 0 30 -3 6 -5 -1 -5 -18z"/>
<path d="M3162 3220 c0 -14 2 -19 5 -12 2 6 2 18 0 25 -3 6 -5 1 -5 -13z"/>
<path d="M4743 2488 c-50 -88 -113 -227 -113 -246 0 -13 81 -58 339 -186 204
-102 345 -166 355 -163 9 4 48 71 88 151 70 140 72 146 54 165 -9 10 -31 25
-47 31 -39 17 -51 6 -100 -92 -45 -90 -52 -93 -139 -52 -96 44 -104 60 -71
134 22 49 20 63 -14 78 -35 16 -48 8 -73 -43 -29 -60 -52 -64 -135 -27 -93 43
-97 54 -48 159 21 47 37 92 34 100 -7 17 -55 43 -82 43 -13 0 -29 -17 -48 -52z"/>
<path d="M1851 2474 c0 -11 3 -14 6 -6 3 7 2 16 -1 19 -3 4 -6 -2 -5 -13z"/>
<path d="M1731 2438 c-1 -15 10 -39 24 -57 18 -20 30 -54 40 -106 8 -42 20
-84 25 -93 10 -15 10 -14 6 3 -3 11 -12 56 -21 100 -10 57 -21 85 -36 98 -12
9 -25 32 -29 50 -7 30 -8 30 -9 5z"/>
<path d="M2880 2380 c-8 -5 -10 -10 -5 -10 6 0 17 5 25 10 8 5 11 10 5 10 -5
0 -17 -5 -25 -10z"/>
<path d="M1707 2300 c19 -48 27 -96 38 -242 18 -224 42 -375 91 -570 33 -129
36 -153 26 -181 -6 -17 -8 -35 -3 -40 4 -4 14 12 20 36 11 37 10 51 -7 103
-50 148 -99 434 -121 700 -10 122 -37 234 -60 249 -5 2 2 -22 16 -55z"/>
<path d="M4880 2353 c0 -5 20 -23 45 -41 51 -36 62 -27 13 10 -46 34 -58 41
-58 31z"/>
<path d="M2272 2240 c-76 -68 -131 -100 -176 -100 -23 0 -47 -4 -54 -8 -7 -5
16 -6 50 -4 71 5 112 28 188 106 54 56 50 59 -8 6z"/>
<path d="M2778 2231 c-42 -46 -69 -105 -67 -147 0 -16 27 66 29 87 0 4 21 30
46 58 25 28 44 51 41 51 -3 0 -25 -22 -49 -49z"/>
<path d="M4579 2142 c-50 -22 -120 -105 -138 -164 -15 -46 4 -96 57 -151 94
-96 172 -122 267 -87 132 48 182 45 242 -15 38 -38 41 -54 14 -86 -19 -24 -19
-24 -65 -7 -55 20 -64 18 -94 -26 -30 -44 -21 -63 46 -99 94 -51 163 -30 234
72 65 93 47 162 -63 252 -106 87 -170 97 -290 48 -82 -34 -101 -34 -157 1 -43
26 -59 62 -44 95 14 30 45 33 97 8 l36 -17 24 29 c13 17 27 39 31 49 16 47
-140 124 -197 98z"/>
<path d="M3165 2116 c17 -7 41 -16 55 -20 20 -5 19 -3 -5 8 -16 7 -41 16 -55
20 -20 5 -19 3 5 -8z"/>
<path d="M2310 2059 c-26 -29 -49 -44 -85 -55 l-50 -14 44 5 c51 7 89 31 114
74 24 42 18 39 -23 -10z"/>
<path d="M2661 2034 c0 -11 3 -14 6 -6 3 7 2 16 -1 19 -3 4 -6 -2 -5 -13z"/>
<path d="M2138 2003 c7 -3 16 -2 19 1 4 3 -2 6 -13 5 -11 0 -14 -3 -6 -6z"/>
<path d="M4980 1950 c-9 -6 -10 -10 -3 -10 6 0 15 5 18 10 8 12 4 12 -15 0z"/>
<path d="M4237 1801 l-42 -39 27 -54 c22 -43 175 -304 342 -585 30 -50 43 -53
85 -17 37 31 38 49 6 105 -30 53 -32 90 -5 114 31 28 71 23 125 -18 26 -21 52
-37 57 -37 4 0 25 15 46 34 l37 34 -20 23 c-11 12 -46 43 -77 68 -31 25 -155
128 -276 229 -133 110 -229 182 -242 182 -11 0 -40 -18 -63 -39z m320 -315
c23 -20 26 -28 17 -42 -6 -10 -15 -19 -20 -21 -17 -6 -44 21 -53 55 -8 28 -7
32 9 32 10 0 32 -11 47 -24z"/>
<path d="M2248 1683 c-40 -32 -94 -94 -193 -219 -90 -113 -98 -124 -93 -129 2
-3 42 43 87 100 46 58 85 105 87 105 3 0 -4 -17 -14 -37 -51 -101 -143 -305
-139 -309 3 -3 72 135 151 306 39 84 83 146 129 180 22 16 36 30 30 30 -5 0
-26 -12 -45 -27z"/>
<path d="M3960 1614 c-69 -36 -134 -74 -145 -85 -20 -19 -20 -20 28 -112 43
-85 106 -203 246 -466 31 -58 63 -109 72 -114 18 -11 23 -9 184 77 119 63 132
76 116 115 -7 16 -21 37 -31 46 -18 16 -23 15 -99 -24 -44 -22 -89 -41 -100
-41 -21 0 -46 30 -80 97 -32 65 -28 87 21 115 51 28 67 51 52 75 -21 34 -39
37 -86 15 -72 -36 -84 -30 -132 65 -43 86 -39 95 59 149 64 36 85 53 85 68 0
27 -36 86 -52 86 -7 0 -69 -30 -138 -66z"/>
<path d="M4704 1625 c-9 -14 -15 -28 -12 -30 2 -2 12 9 22 25 21 36 13 40 -10
5z"/>
<path d="M3655 1563 c2 -31 18 -83 40 -130 66 -143 67 -233 2 -252 -31 -9 -31
-9 -5 -10 54 -2 78 59 59 149 -15 68 -15 67 14 40 14 -13 27 -21 30 -18 3 2
-14 20 -36 38 -45 35 -81 106 -98 187 l-10 48 4 -52z"/>
<path d="M4180 1511 c0 -5 10 -13 23 -16 12 -4 37 -18 55 -32 17 -13 32 -20
32 -14 0 13 -58 57 -87 66 -13 3 -23 2 -23 -4z"/>
<path d="M3470 1427 c-19 -7 -36 -19 -38 -28 -4 -22 186 -699 204 -726 8 -13
17 -23 21 -23 28 0 302 86 316 100 21 20 15 59 -12 84 -16 14 -26 14 -112 -8
-60 -15 -100 -21 -110 -15 -11 5 -38 84 -79 231 -34 123 -71 257 -83 298 -30
108 -35 112 -107 87z"/>
<path d="M4110 1425 c30 -8 82 -29 114 -45 65 -33 116 -39 116 -15 0 12 -3 13
-19 3 -16 -10 -32 -6 -100 26 -45 21 -100 40 -123 42 -41 4 -41 4 12 -11z"/>
<path d="M3063 1383 c-13 -2 -23 -12 -24 -21 -4 -88 35 -745 45 -761 11 -17
92 -13 110 4 11 11 14 29 11 63 -12 131 -14 216 -5 232 6 11 30 23 60 29 77
17 106 35 130 86 20 42 22 58 18 153 -8 188 -43 223 -220 221 -56 -1 -113 -4
-125 -6z m201 -145 c22 -31 22 -141 0 -162 -19 -19 -58 -21 -71 -3 -15 18 -24
146 -12 168 14 27 64 25 83 -3z"/>
</g>
</svg>
